<svg width="36" height="36" viewBox="0 0 36 36" fill="none" xmlns="http://www.w3.org/2000/svg">
<path d="M15.3501 16.1049C13.7574 16.1049 12.2006 15.6326 10.8764 14.7478C9.55214 13.863 8.52004 12.6054 7.91057 11.134C7.3011 9.66259 7.14163 8.04351 7.45234 6.48149C7.76304 4.91947 8.52996 3.48466 9.65612 2.35851C10.7823 1.23235 12.2171 0.465434 13.7791 0.154729C15.3411 -0.155976 16.9602 0.00348899 18.4316 0.612959C19.903 1.22243 21.1606 2.25453 22.0454 3.57875C22.9302 4.90297 23.4025 6.45982 23.4025 8.05244C23.4025 10.1881 22.5541 12.2363 21.044 13.7464C19.5339 15.2565 17.4857 16.1049 15.3501 16.1049ZM15.3501 2.39273C14.2125 2.39273 13.1004 2.73006 12.1546 3.36207C11.2087 3.99408 10.4715 4.89238 10.0361 5.94338C9.6008 6.99437 9.48689 8.15085 9.70883 9.26658C9.93076 10.3823 10.4786 11.4072 11.283 12.2116C12.0874 13.016 13.1122 13.5638 14.2279 13.7857C15.3437 14.0076 16.5002 13.8937 17.5511 13.4584C18.6021 13.0231 19.5004 12.2858 20.1325 11.34C20.7645 10.3941 21.1018 9.28206 21.1018 8.14447C21.1018 7.38914 20.953 6.64121 20.664 5.94338C20.3749 5.24554 19.9512 4.61147 19.4171 4.07738C18.883 3.54328 18.249 3.11961 17.5511 2.83055C16.8533 2.5415 16.1054 2.39273 15.3501 2.39273Z" fill="#1D39CF"/>
<path d="M21.7576 17.4967C15.5324 16.0959 9.01982 16.7706 3.21398 19.4178C2.41552 19.7992 1.74184 20.3996 1.27139 21.1491C0.800941 21.8985 0.553083 22.7662 0.556679 23.6511V30.4957C0.556679 30.8007 0.677876 31.0933 0.893608 31.3091C1.10934 31.5248 1.40194 31.646 1.70703 31.646C2.01212 31.646 2.30471 31.5248 2.52045 31.3091C2.73618 31.0933 2.85738 30.8007 2.85738 30.4957V23.6511C2.84736 23.2033 2.96829 22.7622 3.20533 22.3822C3.44237 22.0021 3.78521 21.6995 4.19178 21.5114C7.68915 19.8966 11.498 19.0681 15.3502 19.0842C17.5086 19.0814 19.6596 19.3363 21.7576 19.8434V17.4967Z" fill="#1D39CF"/>
<path d="M28.9821 28.4366H21.9189V30.0471H28.9821V28.4366Z" fill="#1D39CF"/>
<path d="M34.607 21.6034H28.6597V23.9041H33.4566V33.5325H17.1562V23.9041H24.4034V24.3872C24.4034 24.6923 24.5246 24.9849 24.7403 25.2006C24.956 25.4164 25.2486 25.5376 25.5537 25.5376C25.8588 25.5376 26.1514 25.4164 26.3671 25.2006C26.5829 24.9849 26.7041 24.6923 26.7041 24.3872V19.9124C26.7041 19.6073 26.5829 19.3147 26.3671 19.099C26.1514 18.8832 25.8588 18.762 25.5537 18.762C25.2486 18.762 24.956 18.8832 24.7403 19.099C24.5246 19.3147 24.4034 19.6073 24.4034 19.9124V21.6034H16.0058C15.7007 21.6034 15.4081 21.7246 15.1924 21.9403C14.9767 22.156 14.8555 22.4486 14.8555 22.7537V34.6828C14.8555 34.9879 14.9767 35.2805 15.1924 35.4963C15.4081 35.712 15.7007 35.8332 16.0058 35.8332H34.607C34.912 35.8332 35.2046 35.712 35.4204 35.4963C35.6361 35.2805 35.7573 34.9879 35.7573 34.6828V22.7537C35.7573 22.4486 35.6361 22.156 35.4204 21.9403C35.2046 21.7246 34.912 21.6034 34.607 21.6034Z" fill="#1D39CF"/>
</svg>
