<svg width="17" height="17" viewBox="0 0 17 17" fill="none" xmlns="http://www.w3.org/2000/svg">
<path d="M8.35005 16.1049C6.75743 16.1049 5.20057 15.6326 3.87636 14.7478C2.55214 13.863 1.52004 12.6054 0.910567 11.134C0.301096 9.66259 0.141631 8.04351 0.452336 6.48149C0.763042 4.91947 1.52996 3.48466 2.65612 2.35851C3.78227 1.23235 5.21708 0.465434 6.7791 0.154729C8.34112 -0.155976 9.9602 0.00348899 11.4316 0.612959C12.903 1.22243 14.1606 2.25453 15.0454 3.57875C15.9302 4.90297 16.4025 6.45982 16.4025 8.05244C16.4025 10.1881 15.5541 12.2363 14.044 13.7464C12.5339 15.2565 10.4857 16.1049 8.35005 16.1049ZM8.35005 2.39273C7.21247 2.39273 6.10042 2.73006 5.15456 3.36207C4.20869 3.99408 3.47147 4.89238 3.03613 5.94338C2.6008 6.99437 2.48689 8.15085 2.70883 9.26658C2.93076 10.3823 3.47856 11.4072 4.28296 12.2116C5.08735 13.016 6.11221 13.5638 7.22794 13.7857C8.34367 14.0076 9.50015 13.8937 10.5511 13.4584C11.6021 13.0231 12.5004 12.2858 13.1325 11.34C13.7645 10.3941 14.1018 9.28206 14.1018 8.14447C14.1018 7.38914 13.953 6.64121 13.664 5.94338C13.3749 5.24554 12.9512 4.61147 12.4171 4.07738C11.883 3.54328 11.249 3.11961 10.5511 2.83055C9.85331 2.5415 9.10538 2.39273 8.35005 2.39273Z" fill="#1D39CF"/>
</svg>
