<?xml version="1.0" encoding="utf-8"?>
<!-- Generator: Adobe Illustrator 24.0.2, SVG Export Plug-In . SVG Version: 6.00 Build 0)  -->
<svg version="1.1" xmlns="http://www.w3.org/2000/svg" xmlns:xlink="http://www.w3.org/1999/xlink" x="0px" y="0px"
	 viewBox="0 0 24 24" style="enable-background:new 0 0 24 24;" xml:space="preserve">
<style type="text/css">
	.st0{fill:none;}
	.st1{fill:#30c9e8;}
</style>
<g id="bounding_box">
	<rect class="st0" width="24" height="24"/>
</g>
<g id="design">
	<path class="st1" d="M12.25,3h-0.5C6.92,3,3,6.93,3,11.75v6.5C3,19.77,4.23,21,5.75,21h2.5C8.66,21,9,20.66,9,20.25v-4.5
		C9,14.23,7.77,13,6.25,13h-0.5c-0.45,0-0.88,0.11-1.25,0.3v-1.55c0-4,3.25-7.25,7.25-7.25h0.5c4,0,7.25,3.25,7.25,7.25v1.55
		c-0.37-0.19-0.8-0.3-1.25-0.3h-0.5C16.23,13,15,14.23,15,15.75v4.5c0,0.41,0.34,0.75,0.75,0.75h2.5c1.52,0,2.75-1.23,2.75-2.75
		v-6.5C21,6.93,17.08,3,12.25,3z M5.75,14.5h0.5c0.69,0,1.25,0.56,1.25,1.25v3.75H5.75c-0.69,0-1.25-0.56-1.25-1.25v-2.5
		C4.5,15.06,5.06,14.5,5.75,14.5z M19.5,18.25c0,0.69-0.56,1.25-1.25,1.25H16.5v-3.75c0-0.69,0.56-1.25,1.25-1.25h0.5
		c0.69,0,1.25,0.56,1.25,1.25V18.25z"/>
</g>
</svg>
