<svg width="37" height="36" viewBox="0 0 37 36" fill="none" xmlns="http://www.w3.org/2000/svg">
<path d="M36.5538 13.0227L36.5566 1.05783L31.8044 5.81004L31.2719 5.27749C27.8735 1.87915 23.3551 0.00756836 18.5491 0.00756836C8.62795 0.00749805 0.556641 8.07895 0.556641 18C0.556641 27.921 8.62795 35.9925 18.5491 35.9925C28.4703 35.9925 36.5415 27.921 36.5415 18H33.0591C33.0591 26.0008 26.5499 32.51 18.549 32.51C10.5482 32.51 4.03908 26.0008 4.03908 18C4.03908 9.99912 10.5483 3.48994 18.5491 3.48994C22.425 3.48994 26.0688 4.99919 28.8095 7.73983L29.342 8.27238L24.5903 13.0241L36.5538 13.0227Z" fill="#16CABD"/>
</svg>
